<svg xmlns="http://www.w3.org/2000/svg" width="30" height="30" viewBox="0 0 474.06 473.43"><path d="M375.56,299.28c43.28-76.64,32.55-175.52-32.55-240.45-78.64-78.64-205.7-78.22-283.93,0-78.64,78.64-78.83,205.51-.2,284.12,65.13,64.94,163.81,75.64,240.45,32.36,35.31,37.54,59.67,63.21,70.98,74.53,26.6,26.6,59.67,33.27,86.27,6.67,26.78-26.78,21.12-56.03-5.68-82.63" style="fill:#fff;"/><path d="M200.33,141.82c28.19,.06,52.67,19.42,59.23,46.83h96.67c-7.72-86.1-83.79-149.64-169.89-141.92C110.94,53.5,51.18,113.26,44.42,188.66h96.67c6.56-27.41,31.04-46.77,59.23-46.83Z"/><path d="M200.33,263.54c-28.2-.04-52.69-19.41-59.23-46.83H44.42c7.72,86.1,83.79,149.64,169.89,141.92,75.4-6.76,135.16-66.52,141.92-141.92h-96.67c-6.54,27.43-31.03,46.79-59.23,46.83Z"/><path d="M167.52,202.68c0,18.12,14.69,32.81,32.81,32.81s32.81-14.69,32.81-32.81-14.69-32.81-32.81-32.81c-18.11,.03-32.77,14.7-32.81,32.81Z"/></svg>