<svg xmlns="http://www.w3.org/2000/svg" width="30" height="30" viewBox="0 0 474.06 473.43"><path d="M375.56,299.28c43.28-76.64,32.55-175.52-32.55-240.45-78.64-78.64-205.7-78.22-283.93,0s-78.83,205.51-.2,284.12c65.13,64.94,163.81,75.64,240.45,32.36,35.31,37.54,59.67,63.21,70.98,74.53,26.6,26.6,59.67,33.27,86.27,6.67,26.78-26.78,21.12-56.03-5.68-82.63" style="fill:#fff;"/><circle cx="202.5" cy="197" r="155.91"/><path d="M106.36,151.85v-35.12H245.9v35.12h-48.29v125.42h-42.96v-125.42h-48.29Z" style="fill:#fff;"/><path d="M205.61,191.86v-23.41h93.02v23.41h-32.19v83.62h-28.64v-83.62h-32.19Z" style="fill:#fff;"/></svg>