<svg xmlns="http://www.w3.org/2000/svg" width="30" height="30" viewBox="0 0 520.81 520.81"><path d="M505.58,286.66c-16.04,151.13-150.59,234.15-243.95,234.15-99.31,0-227.7-83.04-243.95-234.15,0,0,10.1,8.71,22.35,17.18,66.67,45.27,143.59,72.93,221.54,73.16h.12c77.96-.23,154.88-27.89,221.54-73.16" style="fill:#fff;"/><path d="M350.89,191.44H171.3v45.51h179.59v-45.51Z" style="fill:#fff;"/><path d="M52.76,0C-117.99,250.95,175.34,354.25,233.42,218.86,80.31,127.4,52.55-.2,52.76,0Z" style="fill:#fff;"/><path d="M468.05,0c170.75,250.95-122.58,354.25-180.66,218.86C440.5,127.41,468.26-.2,468.05,0Z" style="fill:#fff;"/><path d="M189.32,369.11v138.39c21.58,7.76,43.32,12.18,64,13.12v-143.74c-21.5-.6-42.9-3.25-64-7.77Z" style="fill:none;"/><path d="M40.02,303.84c-12.25-8.47-22.35-17.18-22.35-17.18,7.45,69.3,38.5,124.26,79.5,163.49v-113.16c-19.7-9.58-38.81-20.69-57.15-33.15Z" style="fill:none;"/><path d="M114.25,344.84v120.3c18.24,14.68,37.9,26.54,58,35.48v-135.6c-19.7-5.19-39.09-11.97-58-20.18Z" style="fill:none;"/><path d="M350.45,365.16v134.55c19.8-9.06,39.4-20.97,57.68-35.64v-118.85c-18.82,8.12-38.09,14.82-57.68,19.95Z" style="fill:none;"/><path d="M270.39,376.85v143.72c19.91-1.06,41.38-5.7,62.99-13.77v-137.58c-20.77,4.41-41.83,7.02-62.99,7.64Z" style="fill:none;"/><path d="M483.23,303.84c-18.61,12.64-38.02,23.9-58.02,33.58v111.74c41.28-39.15,73.08-93.78,80.37-162.5l-22.35,17.18Z" style="fill:none;"/><path d="M261.69,377.01h-.12c-2.75,0-5.5-.06-8.25-.14v143.74c2.79,.13,5.56,.2,8.31,.2,2.88,0,5.81-.08,8.76-.24v-143.72c-2.9,.08-5.8,.14-8.7,.15Z"/><path d="M333.38,369.22v137.58c5.69-2.12,11.39-4.49,17.07-7.08v-134.55c-5.67,1.48-11.36,2.84-17.07,4.06Z"/><path d="M408.13,345.22v118.85c5.84-4.69,11.54-9.66,17.07-14.91v-111.74c-5.64,2.73-11.34,5.32-17.07,7.8Z"/><path d="M172.25,365.02v135.6c5.67,2.52,11.36,4.82,17.07,6.87v-138.39c-5.72-1.22-11.41-2.6-17.07-4.09Z"/><path d="M97.17,336.99v113.16c5.52,5.28,11.22,10.28,17.07,14.99v-120.3c-5.74-2.49-11.43-5.11-17.07-7.85Z"/></svg>